<svg width="154" height="189" viewBox="0 0 154 189" fill="none" xmlns="http://www.w3.org/2000/svg">
<g filter="url(#filter0_dddddd_153_8)">
<path d="M47.585 21.6961C47.585 21.0988 48.0692 20.6145 48.6666 20.6145H105.67C106.267 20.6145 106.751 21.0988 106.751 21.6961V73.1868C106.751 73.7273 106.352 74.1848 105.817 74.2583L48.8137 82.0866C48.164 82.1759 47.585 81.6709 47.585 81.0151V21.6961Z" fill="url(#paint0_linear_153_8)"/>
</g>
<g filter="url(#filter1_dd_153_8)">
<path d="M39.8008 1.58161C39.8008 0.98425 40.285 0.5 40.8824 0.5H113.456C114.053 0.5 114.537 0.984252 114.537 1.58161V67.7197C114.537 68.2597 114.139 68.717 113.604 68.7911L41.0308 78.8407C40.3806 78.9307 39.8008 78.4257 39.8008 77.7693V1.58161Z" fill="url(#paint1_linear_153_8)"/>
</g>
<path d="M32.5644 67.4602L34.3741 67.4602L34.3741 68.4401L33.4268 68.4401L33.4268 71.6676L34.3741 71.6676L34.3741 72.6476L32.5644 72.6411L32.5644 72.4581C32.5557 72.1837 32.3553 71.9899 31.9633 71.8767C31.5713 71.7634 31.0116 71.6937 30.2842 71.6676L28.8535 71.6153L28.8535 68.1004L32.5644 68.1004L32.5644 67.4602ZM30.3822 70.7333C30.9267 70.7551 31.384 70.8008 31.7542 70.8705C32.1201 70.9402 32.3901 71.0469 32.5644 71.1907L32.5644 69.1457L29.7159 69.1457L29.7159 70.7137L30.3822 70.7333ZM32.4468 63.2859L32.4468 65.4093L33.4268 65.8143L33.4268 66.8989L28.8535 64.8605L28.8535 63.8151L33.4268 61.7702L33.4268 62.8809L32.4468 63.2859ZM31.6432 63.6191L29.8922 64.3443L31.6432 65.0695L31.6432 63.6191ZM29.7158 57.5715L29.7158 59.0349L33.4268 59.0349L33.4268 60.0802L29.7158 60.0802L29.7158 61.5372L28.8535 61.5372L28.8535 57.5715L29.7158 57.5715ZM32.4468 53.7131L32.4468 55.8365L33.4268 56.2415L33.4268 57.3261L28.8535 55.2877L28.8535 54.2423L33.4268 52.1974L33.4268 53.3081L32.4468 53.7131ZM31.6432 54.0463L29.8922 54.7715L31.6432 55.4967L31.6432 54.0463ZM31.0421 45.9187C31.1249 45.64 31.2599 45.4266 31.4472 45.2785C31.6345 45.1304 31.8653 45.0563 32.1397 45.0563C32.5448 45.0563 32.8605 45.211 33.087 45.5202C33.3135 45.8251 33.4268 46.2628 33.4268 46.8334L33.4268 49.0874L28.8535 49.0874L28.8535 46.9575C28.8535 46.4262 28.9558 46.0124 29.1605 45.7162C29.3652 45.42 29.657 45.2719 30.036 45.2719C30.2625 45.2719 30.4628 45.3286 30.637 45.4418C30.8069 45.555 30.9419 45.714 31.0421 45.9187ZM30.7481 48.0355L30.7481 47.049C30.7481 46.8182 30.7024 46.6439 30.6109 46.5263C30.5151 46.4087 30.3757 46.3499 30.1928 46.3499C30.0142 46.3499 29.877 46.4109 29.7812 46.5329C29.6854 46.6505 29.6374 46.8225 29.6374 47.049L29.6374 48.0355L30.7481 48.0355ZM32.6428 46.8726C32.6428 46.3761 32.4468 46.1278 32.0548 46.1278C31.6758 46.1278 31.4864 46.3761 31.4864 46.8726L31.4864 48.0355L32.6428 48.0355L32.6428 46.8726ZM30.3561 41.6779C30.3561 41.1204 30.4802 40.6935 30.7285 40.3973C30.9768 40.0968 31.3448 39.9465 31.8326 39.9465C32.3509 39.9465 32.7473 40.1121 33.0217 40.4431C33.2917 40.7697 33.4268 41.2314 33.4268 41.8281L33.4268 43.8926L28.8535 43.8926L28.8535 42.8408L30.3561 42.8408L30.3561 41.6779ZM32.6428 41.8869C32.6428 41.6125 32.5753 41.3991 32.4402 41.2467C32.3052 41.0899 32.1092 41.0115 31.8522 41.0115C31.3775 41.0115 31.1401 41.3033 31.1401 41.8869L31.1401 42.8408L32.6428 42.8408L32.6428 41.8869ZM28.8535 39.3651L28.8535 38.3132L33.4268 38.3132L33.4268 39.3651L28.8535 39.3651ZM28.8535 36.0245L30.2385 35.0772L28.8535 34.1298L28.8535 32.8885L31.0421 34.4108L33.4268 32.7644L33.4268 34.0122L31.911 35.0772L33.4268 36.129L33.4268 37.3507L31.0878 35.7174L28.8535 37.2462L28.8535 36.0245ZM33.5052 29.7898C33.5052 30.2646 33.4028 30.6936 33.1981 31.0769C32.9934 31.4558 32.7124 31.7542 32.3553 31.972C31.9938 32.1854 31.5887 32.2921 31.1401 32.2921C30.6915 32.2921 30.2886 32.1854 29.9314 31.972C29.5699 31.7542 29.2868 31.4558 29.0821 31.0769C28.8774 30.6936 28.7751 30.2646 28.7751 29.7898C28.7751 29.3151 28.8774 28.8882 29.0821 28.5093C29.2868 28.1304 29.5699 27.832 29.9314 27.6142C30.2886 27.3965 30.6915 27.2876 31.1401 27.2876C31.5887 27.2876 31.9938 27.3965 32.3553 27.6142C32.7124 27.832 32.9934 28.1304 33.1981 28.5093C33.4028 28.8882 33.5052 29.3151 33.5052 29.7898ZM32.6036 29.7898C32.6036 29.5198 32.5426 29.2759 32.4206 29.0581C32.2943 28.8403 32.1201 28.6705 31.898 28.5485C31.6758 28.4222 31.4232 28.359 31.1401 28.359C30.857 28.359 30.6044 28.4222 30.3822 28.5485C30.1601 28.6705 29.9881 28.8403 29.8661 29.0581C29.7398 29.2759 29.6766 29.5198 29.6766 29.7898C29.6766 30.0599 29.7398 30.3038 29.8661 30.5216C29.9881 30.7393 30.1601 30.9114 30.3822 31.0377C30.6044 31.1596 30.857 31.2206 31.1401 31.2206C31.4232 31.2206 31.6758 31.1596 31.898 31.0377C32.1201 30.9114 32.2943 30.7393 32.4206 30.5216C32.5426 30.3038 32.6036 30.0599 32.6036 29.7898ZM32.5644 21.5562L34.3741 21.5562L34.3741 22.5362L33.4268 22.5362L33.4268 25.7636L34.3741 25.7636L34.3741 26.7436L32.5644 26.7371L32.5644 26.5541C32.5557 26.2797 32.3553 26.0859 31.9633 25.9727C31.5713 25.8594 31.0116 25.7897 30.2842 25.7636L28.8535 25.7113L28.8535 22.1964L32.5644 22.1964L32.5644 21.5562ZM30.3822 24.8293C30.9267 24.8511 31.384 24.8968 31.7542 24.9665C32.1201 25.0362 32.3901 25.1429 32.5644 25.2867L32.5644 23.2417L29.7158 23.2417L29.7158 24.8097L30.3822 24.8293ZM32.4468 17.3819L32.4468 19.5053L33.4268 19.9103L33.4268 20.9949L28.8535 18.9565L28.8535 17.9111L33.4268 15.8662L33.4268 16.9769L32.4468 17.3819ZM31.6432 17.7151L29.8922 18.4403L31.6432 19.1655L31.6432 17.7151Z" fill="#474747"/>
<path d="M59.1455 17.9412H71.7477V22.7126C71.6506 23.3924 71.5413 24.0723 71.4199 24.7522C71.2985 25.4321 71.0921 26.4276 70.8007 27.7389C70.5336 29.0501 70.2786 30.3856 70.0358 31.7453C69.2831 35.4361 68.9067 38.7263 68.9067 41.6158V45.0396H61.7679V42.1622C61.7679 39.5883 62.4235 36.4803 63.7347 32.838C65.1674 28.9772 66.0536 26.5126 66.3936 25.4442C66.7578 24.3516 66.9399 23.5381 66.9399 23.0039H64.4268V26.6826H59.1455V17.9412ZM71.205 31.4904H77.5061V36.8081H71.205V31.4904ZM78.9519 26.027H76.0381V21.0007C77.3494 21.0007 78.2842 20.7336 78.8427 20.1994C79.4254 19.6652 79.7532 18.9125 79.8261 17.9412H84.9252V45.0396H78.9519V26.027ZM88.9112 26.027H85.9974V21.0007C87.3086 21.0007 88.2435 20.7336 88.802 20.1994C89.3847 19.6652 89.7125 18.9125 89.7854 17.9412H94.8845V45.0396H88.9112V26.027Z" fill="url(#paint2_linear_153_8)"/>
<path d="M64.851 49.6898V55.5445L66.1101 49.6898H68.5338V61.3992H66.1101V55.576L64.851 61.3992H62.4273V49.6898H64.851ZM78.5894 52.8375V58.3931C78.5894 59.4004 78.3324 60.1821 77.8182 60.7382C77.3041 61.2942 76.5959 61.5723 75.6936 61.5723H75.1742C74.2299 61.5723 73.5059 61.2995 73.0023 60.7539C72.4987 60.1978 72.2468 59.4109 72.2468 58.3931V56.5675H71.633V61.3992H69.0362V49.6898H71.633V54.0179H72.2468V52.8375C72.2468 50.6341 73.2226 49.5324 75.1742 49.5324H75.6778C77.6189 49.5324 78.5894 50.6341 78.5894 52.8375ZM75.8982 58.5663V52.5699C75.8982 52.1292 75.7408 51.9089 75.426 51.9089C75.1112 51.9089 74.9538 52.1292 74.9538 52.5699V58.5663C74.9538 58.9545 75.1112 59.1486 75.426 59.1486C75.7408 59.1486 75.8982 58.9545 75.8982 58.5663ZM79.5454 58.1098C79.6188 56.5465 79.6556 53.7398 79.6556 49.6898H85.3214V61.3992H82.7246V52.1135H82.0163C82.0163 55.2612 81.9744 57.5223 81.8904 58.8968C81.8275 59.8306 81.6124 60.4811 81.2452 60.8483C80.8884 61.2156 80.2589 61.3992 79.3565 61.3992H78.8687V58.8968H78.9946C79.2044 58.8968 79.346 58.8391 79.4195 58.7236C79.4929 58.5977 79.5349 58.3931 79.5454 58.1098ZM89.3133 57.1655H89.1402L88.2116 61.3992H85.5361L86.7479 56.4258C86.2128 56.0586 85.9453 55.4238 85.9453 54.5215V52.0506C85.9453 51.2531 86.1184 50.6603 86.4646 50.2721C86.8214 49.8839 87.3827 49.6898 88.1487 49.6898H91.8944V61.3992H89.3133V57.1655ZM89.3133 55.0094V51.7358H88.9985C88.8202 51.7358 88.6995 51.783 88.6365 51.8774C88.5736 51.9719 88.5421 52.1188 88.5421 52.3181V54.4428C88.5421 54.6421 88.5736 54.789 88.6365 54.8835C88.6995 54.9674 88.8202 55.0094 88.9985 55.0094H89.3133Z" fill="url(#paint3_linear_153_8)"/>
<defs>
<filter id="filter0_dddddd_153_8" x="0.414871" y="20.6145" width="153.507" height="167.615" filterUnits="userSpaceOnUse" color-interpolation-filters="sRGB">
<feFlood flood-opacity="0" result="BackgroundImageFix"/>
<feColorMatrix in="SourceAlpha" type="matrix" values="0 0 0 0 0 0 0 0 0 0 0 0 0 0 0 0 0 0 127 0" result="hardAlpha"/>
<feOffset dy="1.63165"/>
<feGaussianBlur stdDeviation="0.652659"/>
<feColorMatrix type="matrix" values="0 0 0 0 0 0 0 0 0 0 0 0 0 0 0 0 0 0 0.0140573 0"/>
<feBlend mode="normal" in2="BackgroundImageFix" result="effect1_dropShadow_153_8"/>
<feColorMatrix in="SourceAlpha" type="matrix" values="0 0 0 0 0 0 0 0 0 0 0 0 0 0 0 0 0 0 127 0" result="hardAlpha"/>
<feOffset dy="3.92107"/>
<feGaussianBlur stdDeviation="1.56843"/>
<feColorMatrix type="matrix" values="0 0 0 0 0 0 0 0 0 0 0 0 0 0 0 0 0 0 0.0201946 0"/>
<feBlend mode="normal" in2="effect1_dropShadow_153_8" result="effect2_dropShadow_153_8"/>
<feColorMatrix in="SourceAlpha" type="matrix" values="0 0 0 0 0 0 0 0 0 0 0 0 0 0 0 0 0 0 127 0" result="hardAlpha"/>
<feOffset dy="7.38303"/>
<feGaussianBlur stdDeviation="2.95321"/>
<feColorMatrix type="matrix" values="0 0 0 0 0 0 0 0 0 0 0 0 0 0 0 0 0 0 0.025 0"/>
<feBlend mode="normal" in2="effect2_dropShadow_153_8" result="effect3_dropShadow_153_8"/>
<feColorMatrix in="SourceAlpha" type="matrix" values="0 0 0 0 0 0 0 0 0 0 0 0 0 0 0 0 0 0 127 0" result="hardAlpha"/>
<feOffset dy="13.1701"/>
<feGaussianBlur stdDeviation="5.26803"/>
<feColorMatrix type="matrix" values="0 0 0 0 0 0 0 0 0 0 0 0 0 0 0 0 0 0 0.0298054 0"/>
<feBlend mode="normal" in2="effect3_dropShadow_153_8" result="effect4_dropShadow_153_8"/>
<feColorMatrix in="SourceAlpha" type="matrix" values="0 0 0 0 0 0 0 0 0 0 0 0 0 0 0 0 0 0 127 0" result="hardAlpha"/>
<feOffset dy="24.6332"/>
<feGaussianBlur stdDeviation="9.85327"/>
<feColorMatrix type="matrix" values="0 0 0 0 0 0 0 0 0 0 0 0 0 0 0 0 0 0 0.0359427 0"/>
<feBlend mode="normal" in2="effect4_dropShadow_153_8" result="effect5_dropShadow_153_8"/>
<feColorMatrix in="SourceAlpha" type="matrix" values="0 0 0 0 0 0 0 0 0 0 0 0 0 0 0 0 0 0 127 0" result="hardAlpha"/>
<feOffset dy="58.9626"/>
<feGaussianBlur stdDeviation="23.585"/>
<feColorMatrix type="matrix" values="0 0 0 0 0 0 0 0 0 0 0 0 0 0 0 0 0 0 0.05 0"/>
<feBlend mode="normal" in2="effect5_dropShadow_153_8" result="effect6_dropShadow_153_8"/>
<feBlend mode="normal" in="SourceGraphic" in2="effect6_dropShadow_153_8" result="shape"/>
</filter>
<filter id="filter1_dd_153_8" x="13.2676" y="-23.6747" width="127.803" height="131.417" filterUnits="userSpaceOnUse" color-interpolation-filters="sRGB">
<feFlood flood-opacity="0" result="BackgroundImageFix"/>
<feColorMatrix in="SourceAlpha" type="matrix" values="0 0 0 0 0 0 0 0 0 0 0 0 0 0 0 0 0 0 127 0" result="hardAlpha"/>
<feOffset dy="2.3585"/>
<feGaussianBlur stdDeviation="13.2666"/>
<feComposite in2="hardAlpha" operator="out"/>
<feColorMatrix type="matrix" values="0 0 0 0 0 0 0 0 0 0 0 0 0 0 0 0 0 0 0.05 0"/>
<feBlend mode="normal" in2="BackgroundImageFix" result="effect1_dropShadow_153_8"/>
<feColorMatrix in="SourceAlpha" type="matrix" values="0 0 0 0 0 0 0 0 0 0 0 0 0 0 0 0 0 0 127 0" result="hardAlpha"/>
<feOffset dy="2.17776"/>
<feGaussianBlur stdDeviation="1.08888"/>
<feComposite in2="hardAlpha" operator="out"/>
<feColorMatrix type="matrix" values="0 0 0 0 0 0 0 0 0 0 0 0 0 0 0 0 0 0 0.11 0"/>
<feBlend mode="normal" in2="effect1_dropShadow_153_8" result="effect2_dropShadow_153_8"/>
<feBlend mode="normal" in="SourceGraphic" in2="effect2_dropShadow_153_8" result="shape"/>
</filter>
<linearGradient id="paint0_linear_153_8" x1="148.463" y1="-10.9376" x2="49.4101" y2="66.3255" gradientUnits="userSpaceOnUse">
<stop stop-color="#D80023"/>
<stop offset="0.370128" stop-color="#FC2144"/>
<stop offset="0.605261" stop-color="#D80023"/>
<stop offset="1" stop-color="#FF0000"/>
</linearGradient>
<linearGradient id="paint1_linear_153_8" x1="167.226" y1="-39.6874" x2="41.3222" y2="57.7079" gradientUnits="userSpaceOnUse">
<stop stop-color="#D80023"/>
<stop offset="0.370128" stop-color="#FC2144"/>
<stop offset="0.605261" stop-color="#D80023"/>
<stop offset="1" stop-color="#FF0000"/>
</linearGradient>
<linearGradient id="paint2_linear_153_8" x1="114.002" y1="32.2341" x2="40.2082" y2="32.2341" gradientUnits="userSpaceOnUse">
<stop stop-color="white" stop-opacity="0.77"/>
<stop offset="0.370128" stop-color="white"/>
<stop offset="0.605261" stop-color="white"/>
<stop offset="1" stop-color="white" stop-opacity="0.8"/>
</linearGradient>
<linearGradient id="paint3_linear_153_8" x1="105.88" y1="55.6933" x2="48.3577" y2="55.6933" gradientUnits="userSpaceOnUse">
<stop stop-color="white" stop-opacity="0.77"/>
<stop offset="0.370128" stop-color="white"/>
<stop offset="0.605261" stop-color="white"/>
<stop offset="1" stop-color="white" stop-opacity="0.8"/>
</linearGradient>
</defs>
</svg>
