<svg width="283" height="339" viewBox="0 0 283 339" fill="none" xmlns="http://www.w3.org/2000/svg">
<g filter="url(#filter0_dddddd_202_142)">
<path d="M87.6318 32.6549C87.6318 31.5577 88.5213 30.6682 89.6185 30.6682H194.319C195.416 30.6682 196.306 31.5577 196.306 32.6549V127.23C196.306 128.223 195.573 129.063 194.589 129.198L89.8888 143.577C88.6953 143.741 87.6318 142.813 87.6318 141.609V32.6549Z" fill="url(#paint0_linear_202_142)"/>
</g>
<g filter="url(#filter1_dd_202_142)">
<path d="M73.333 -4.29023C73.333 -5.38742 74.2225 -6.27686 75.3196 -6.27686H208.618C209.716 -6.27686 210.605 -5.38741 210.605 -4.29022V117.189C210.605 118.181 209.873 119.021 208.891 119.157L75.5921 137.615C74.398 137.781 73.333 136.853 73.333 135.647V-4.29023Z" fill="url(#paint1_linear_202_142)"/>
</g>
<path d="M60.0205 116.712L63.3445 116.712L63.3445 118.512L61.6045 118.512L61.6045 124.44L63.3445 124.44L63.3445 126.24L60.0205 126.228L60.0205 125.892C60.0045 125.388 59.6365 125.032 58.9165 124.824C58.1965 124.616 57.1685 124.488 55.8325 124.44L53.2045 124.344L53.2045 117.888L60.0205 117.888L60.0205 116.712ZM56.0125 122.724C57.0125 122.764 57.8525 122.848 58.5325 122.976C59.2045 123.104 59.7005 123.3 60.0205 123.564L60.0205 119.808L54.7885 119.808L54.7885 122.688L56.0125 122.724ZM59.8045 109.045L59.8045 112.945L61.6045 113.689L61.6045 115.681L53.2045 111.937L53.2045 110.017L61.6045 106.261L61.6045 108.301L59.8045 109.045ZM58.3285 109.657L55.1125 110.989L58.3285 112.321L58.3285 109.657ZM54.7885 98.5491L54.7885 101.237L61.6045 101.237L61.6045 103.157L54.7885 103.157L54.7885 105.833L53.2045 105.833L53.2045 98.5491L54.7885 98.5491ZM59.8045 91.4623L59.8045 95.3623L61.6045 96.1063L61.6045 98.0983L53.2045 94.3543L53.2045 92.4343L61.6045 88.6783L61.6045 90.7183L59.8045 91.4623ZM58.3285 92.0743L55.1125 93.4063L58.3285 94.7383L58.3285 92.0743ZM57.2245 77.146C57.3765 76.634 57.6245 76.242 57.9685 75.97C58.3125 75.698 58.7365 75.562 59.2405 75.562C59.9845 75.562 60.5645 75.846 60.9805 76.414C61.3965 76.974 61.6045 77.778 61.6045 78.826L61.6045 82.966L53.2045 82.966L53.2045 79.054C53.2045 78.078 53.3925 77.318 53.7685 76.774C54.1445 76.23 54.6805 75.958 55.3765 75.958C55.7925 75.958 56.1605 76.062 56.4805 76.27C56.7925 76.478 57.0405 76.77 57.2245 77.146ZM56.6845 81.034L56.6845 79.222C56.6845 78.798 56.6005 78.478 56.4325 78.262C56.2565 78.046 56.0005 77.938 55.6645 77.938C55.3365 77.938 55.0845 78.05 54.9085 78.274C54.7325 78.49 54.6445 78.806 54.6445 79.222L54.6445 81.034L56.6845 81.034ZM60.1645 78.898C60.1645 77.986 59.8045 77.53 59.0845 77.53C58.3885 77.53 58.0405 77.986 58.0405 78.898L58.0405 81.034L60.1645 81.034L60.1645 78.898ZM55.9645 69.3566C55.9645 68.3326 56.1925 67.5486 56.6485 67.0046C57.1045 66.4526 57.7805 66.1766 58.6765 66.1766C59.6285 66.1766 60.3565 66.4806 60.8605 67.0886C61.3565 67.6886 61.6045 68.5366 61.6045 69.6326L61.6045 73.4246L53.2045 73.4246L53.2045 71.4926L55.9645 71.4926L55.9645 69.3566ZM60.1645 69.7406C60.1645 69.2366 60.0405 68.8446 59.7925 68.5646C59.5445 68.2766 59.1845 68.1326 58.7125 68.1326C57.8405 68.1326 57.4045 68.6686 57.4045 69.7406L57.4045 71.4926L60.1645 71.4926L60.1645 69.7406ZM53.2045 65.1086L53.2045 63.1766L61.6045 63.1766L61.6045 65.1086L53.2045 65.1086ZM53.2045 58.9727L55.7485 57.2327L53.2045 55.4927L53.2045 53.2127L57.2245 56.0087L61.6045 52.9847L61.6045 55.2767L58.8205 57.2327L61.6045 59.1647L61.6045 61.4087L57.3085 58.4087L53.2045 61.2167L53.2045 58.9727ZM61.7485 47.5212C61.7485 48.3932 61.5605 49.1812 61.1845 49.8852C60.8085 50.5812 60.2925 51.1292 59.6365 51.5292C58.9725 51.9212 58.2285 52.1172 57.4045 52.1172C56.5805 52.1172 55.8405 51.9212 55.1845 51.5292C54.5205 51.1292 54.0005 50.5812 53.6245 49.8852C53.2485 49.1812 53.0605 48.3932 53.0605 47.5212C53.0605 46.6492 53.2485 45.8652 53.6245 45.1692C54.0005 44.4732 54.5205 43.9252 55.1845 43.5252C55.8405 43.1252 56.5805 42.9252 57.4045 42.9252C58.2285 42.9252 58.9725 43.1252 59.6365 43.5252C60.2925 43.9252 60.8085 44.4732 61.1845 45.1692C61.5605 45.8652 61.7485 46.6492 61.7485 47.5212ZM60.0925 47.5212C60.0925 47.0252 59.9805 46.5772 59.7565 46.1772C59.5245 45.7772 59.2045 45.4652 58.7965 45.2412C58.3885 45.0092 57.9245 44.8932 57.4045 44.8932C56.8845 44.8932 56.4205 45.0092 56.0125 45.2412C55.6045 45.4652 55.2885 45.7772 55.0645 46.1772C54.8325 46.5772 54.7165 47.0252 54.7165 47.5212C54.7165 48.0172 54.8325 48.4652 55.0645 48.8652C55.2885 49.2652 55.6045 49.5812 56.0125 49.8132C56.4205 50.0372 56.8845 50.1492 57.4045 50.1492C57.9245 50.1492 58.3885 50.0372 58.7965 49.8132C59.2045 49.5812 59.5245 49.2652 59.7565 48.8652C59.9805 48.4652 60.0925 48.0172 60.0925 47.5212ZM60.0205 32.3981L63.3445 32.3981L63.3445 34.1981L61.6045 34.1981L61.6045 40.1261L63.3445 40.1261L63.3445 41.9261L60.0205 41.9141L60.0205 41.5781C60.0045 41.0741 59.6365 40.7181 58.9165 40.5101C58.1965 40.3021 57.1685 40.1741 55.8325 40.1261L53.2045 40.0301L53.2045 33.5741L60.0205 33.5741L60.0205 32.3981ZM56.0125 38.4101C57.0125 38.4501 57.8525 38.5341 58.5325 38.6621C59.2045 38.7901 59.7005 38.9861 60.0205 39.2501L60.0205 35.4941L54.7885 35.4941L54.7885 38.3741L56.0125 38.4101ZM59.8045 24.7311L59.8045 28.6311L61.6045 29.3751L61.6045 31.3671L53.2045 27.6231L53.2045 25.7031L61.6045 21.9471L61.6045 23.9871L59.8045 24.7311ZM58.3285 25.3431L55.1125 26.6751L58.3285 28.0071L58.3285 25.3431Z" fill="#474747"/>
<path d="M104.585 24.9821H127.732V33.7458C127.553 34.9946 127.353 36.2434 127.13 37.4922C126.907 38.7409 126.527 40.5695 125.992 42.9779C125.502 45.3862 125.033 47.8392 124.587 50.3368C123.205 57.1159 122.514 63.1591 122.514 68.4664V74.7549H109.401V69.4699C109.401 64.7423 110.606 59.0336 113.014 52.3437C115.645 45.2524 117.273 40.7256 117.898 38.7632C118.567 36.7563 118.901 35.2622 118.901 34.281H114.285V41.0378H104.585V24.9821ZM126.735 49.8685H138.308V59.6357H126.735V49.8685ZM140.964 39.8336H135.612V30.6016C138.021 30.6016 139.738 30.111 140.763 29.1298C141.834 28.1486 142.436 26.766 142.57 24.9821H151.935V74.7549H140.964V39.8336ZM166.214 33.4113C165.278 33.4113 164.809 34.0357 164.809 35.2845V42.0413H154.775V34.2141C154.775 31.4044 155.622 29.0629 157.317 27.1897C159.011 25.3166 161.643 24.38 165.211 24.38H167.485C171.232 24.38 174.086 25.272 176.048 27.0559C178.011 28.8399 178.992 31.4044 178.992 34.7493V37.3584C178.992 40.1681 178.747 42.3981 178.256 44.0483C177.765 45.6984 176.561 47.6831 174.644 50.0023C173.261 51.7862 171.655 53.7263 169.827 55.8225C167.864 58.1862 166.415 60.0594 165.478 61.442C164.542 62.78 164.007 63.6274 163.873 63.9842C163.784 64.2963 163.739 64.6977 163.739 65.1883H169.292V57.9632H179.326V74.7549H153.972V68.1988C153.972 65.3444 154.329 62.9138 155.042 60.9068C155.756 58.8552 157.607 55.6441 160.595 51.2734C162.513 48.2406 163.917 46.0998 164.809 44.8511C165.969 42.9333 166.727 41.5284 167.084 40.6364C167.485 39.7444 167.686 38.8524 167.686 37.9605V35.2845C167.686 34.0357 167.195 33.4113 166.214 33.4113Z" fill="url(#paint2_linear_202_142)"/>
<path d="M119.344 83.3576V94.1112L121.657 83.3576H126.109V104.865H121.657V94.169L119.344 104.865H114.893V83.3576H119.344ZM144.578 89.1391V99.3434C144.578 101.193 144.106 102.629 143.162 103.651C142.218 104.672 140.917 105.183 139.259 105.183H138.305C136.571 105.183 135.241 104.682 134.316 103.68C133.391 102.658 132.929 101.213 132.929 99.3434V95.9901H131.801V104.865H127.032V83.3576H131.801V91.3071H132.929V89.1391C132.929 85.092 134.721 83.0685 138.305 83.0685H139.23C142.796 83.0685 144.578 85.092 144.578 89.1391ZM139.635 99.6614V88.6476C139.635 87.8382 139.346 87.4335 138.768 87.4335C138.19 87.4335 137.901 87.8382 137.901 88.6476V99.6614C137.901 100.374 138.19 100.731 138.768 100.731C139.346 100.731 139.635 100.374 139.635 99.6614ZM146.334 98.8231C146.469 95.9516 146.537 90.7964 146.537 83.3576H156.943V104.865H152.174V87.8093H150.873C150.873 93.5908 150.796 97.7439 150.641 100.268C150.526 101.984 150.131 103.178 149.456 103.853C148.801 104.527 147.645 104.865 145.987 104.865H145.091V100.268H145.322C145.708 100.268 145.968 100.162 146.103 99.9505C146.238 99.7192 146.315 99.3434 146.334 98.8231ZM164.275 97.0886H163.957L162.252 104.865H157.338L159.563 95.73C158.581 95.0555 158.089 93.8895 158.089 92.2322V87.6937C158.089 86.2291 158.407 85.1402 159.043 84.4272C159.698 83.7141 160.729 83.3576 162.136 83.3576H169.016V104.865H164.275V97.0886ZM164.275 93.1283V87.1156H163.697C163.37 87.1156 163.148 87.2023 163.032 87.3757C162.917 87.5492 162.859 87.819 162.859 88.1851V92.0876C162.859 92.4538 162.917 92.7236 163.032 92.897C163.148 93.0512 163.37 93.1283 163.697 93.1283H164.275Z" fill="url(#paint3_linear_202_142)"/>
<defs>
<filter id="filter0_dddddd_202_142" x="0.992287" y="30.6682" width="281.953" height="307.866" filterUnits="userSpaceOnUse" color-interpolation-filters="sRGB">
<feFlood flood-opacity="0" result="BackgroundImageFix"/>
<feColorMatrix in="SourceAlpha" type="matrix" values="0 0 0 0 0 0 0 0 0 0 0 0 0 0 0 0 0 0 127 0" result="hardAlpha"/>
<feOffset dy="2.99692"/>
<feGaussianBlur stdDeviation="1.19877"/>
<feColorMatrix type="matrix" values="0 0 0 0 0 0 0 0 0 0 0 0 0 0 0 0 0 0 0.0140573 0"/>
<feBlend mode="normal" in2="BackgroundImageFix" result="effect1_dropShadow_202_142"/>
<feColorMatrix in="SourceAlpha" type="matrix" values="0 0 0 0 0 0 0 0 0 0 0 0 0 0 0 0 0 0 127 0" result="hardAlpha"/>
<feOffset dy="7.20202"/>
<feGaussianBlur stdDeviation="2.88081"/>
<feColorMatrix type="matrix" values="0 0 0 0 0 0 0 0 0 0 0 0 0 0 0 0 0 0 0.0201946 0"/>
<feBlend mode="normal" in2="effect1_dropShadow_202_142" result="effect2_dropShadow_202_142"/>
<feColorMatrix in="SourceAlpha" type="matrix" values="0 0 0 0 0 0 0 0 0 0 0 0 0 0 0 0 0 0 127 0" result="hardAlpha"/>
<feOffset dy="13.5608"/>
<feGaussianBlur stdDeviation="5.42431"/>
<feColorMatrix type="matrix" values="0 0 0 0 0 0 0 0 0 0 0 0 0 0 0 0 0 0 0.025 0"/>
<feBlend mode="normal" in2="effect2_dropShadow_202_142" result="effect3_dropShadow_202_142"/>
<feColorMatrix in="SourceAlpha" type="matrix" values="0 0 0 0 0 0 0 0 0 0 0 0 0 0 0 0 0 0 127 0" result="hardAlpha"/>
<feOffset dy="24.1901"/>
<feGaussianBlur stdDeviation="9.67604"/>
<feColorMatrix type="matrix" values="0 0 0 0 0 0 0 0 0 0 0 0 0 0 0 0 0 0 0.0298054 0"/>
<feBlend mode="normal" in2="effect3_dropShadow_202_142" result="effect4_dropShadow_202_142"/>
<feColorMatrix in="SourceAlpha" type="matrix" values="0 0 0 0 0 0 0 0 0 0 0 0 0 0 0 0 0 0 127 0" result="hardAlpha"/>
<feOffset dy="45.2449"/>
<feGaussianBlur stdDeviation="18.098"/>
<feColorMatrix type="matrix" values="0 0 0 0 0 0 0 0 0 0 0 0 0 0 0 0 0 0 0.0359427 0"/>
<feBlend mode="normal" in2="effect4_dropShadow_202_142" result="effect5_dropShadow_202_142"/>
<feColorMatrix in="SourceAlpha" type="matrix" values="0 0 0 0 0 0 0 0 0 0 0 0 0 0 0 0 0 0 127 0" result="hardAlpha"/>
<feOffset dy="108.299"/>
<feGaussianBlur stdDeviation="43.3198"/>
<feColorMatrix type="matrix" values="0 0 0 0 0 0 0 0 0 0 0 0 0 0 0 0 0 0 0.05 0"/>
<feBlend mode="normal" in2="effect5_dropShadow_202_142" result="effect6_dropShadow_202_142"/>
<feBlend mode="normal" in="SourceGraphic" in2="effect6_dropShadow_202_142" result="shape"/>
</filter>
<filter id="filter1_dd_202_142" x="24.5983" y="-50.6796" width="234.742" height="241.381" filterUnits="userSpaceOnUse" color-interpolation-filters="sRGB">
<feFlood flood-opacity="0" result="BackgroundImageFix"/>
<feColorMatrix in="SourceAlpha" type="matrix" values="0 0 0 0 0 0 0 0 0 0 0 0 0 0 0 0 0 0 127 0" result="hardAlpha"/>
<feOffset dy="4.33198"/>
<feGaussianBlur stdDeviation="24.3674"/>
<feComposite in2="hardAlpha" operator="out"/>
<feColorMatrix type="matrix" values="0 0 0 0 0 0 0 0 0 0 0 0 0 0 0 0 0 0 0.05 0"/>
<feBlend mode="normal" in2="BackgroundImageFix" result="effect1_dropShadow_202_142"/>
<feColorMatrix in="SourceAlpha" type="matrix" values="0 0 0 0 0 0 0 0 0 0 0 0 0 0 0 0 0 0 127 0" result="hardAlpha"/>
<feOffset dy="4"/>
<feGaussianBlur stdDeviation="2"/>
<feComposite in2="hardAlpha" operator="out"/>
<feColorMatrix type="matrix" values="0 0 0 0 0 0 0 0 0 0 0 0 0 0 0 0 0 0 0.11 0"/>
<feBlend mode="normal" in2="effect1_dropShadow_202_142" result="effect2_dropShadow_202_142"/>
<feBlend mode="normal" in="SourceGraphic" in2="effect2_dropShadow_202_142" result="shape"/>
</filter>
<linearGradient id="paint0_linear_202_142" x1="272.92" y1="-27.285" x2="90.9841" y2="114.628" gradientUnits="userSpaceOnUse">
<stop stop-color="#D80023"/>
<stop offset="0.370128" stop-color="#FC2144"/>
<stop offset="0.605261" stop-color="#D80023"/>
<stop offset="1" stop-color="#FF0000"/>
</linearGradient>
<linearGradient id="paint1_linear_202_142" x1="307.381" y1="-80.0909" x2="76.1275" y2="98.7997" gradientUnits="userSpaceOnUse">
<stop stop-color="#D80023"/>
<stop offset="0.370128" stop-color="#FC2144"/>
<stop offset="0.605261" stop-color="#D80023"/>
<stop offset="1" stop-color="#FF0000"/>
</linearGradient>
<linearGradient id="paint2_linear_202_142" x1="209.621" y1="52.0104" x2="74.0808" y2="52.0104" gradientUnits="userSpaceOnUse">
<stop stop-color="white" stop-opacity="0.77"/>
<stop offset="0.370128" stop-color="white"/>
<stop offset="0.605261" stop-color="white"/>
<stop offset="1" stop-color="white" stop-opacity="0.8"/>
</linearGradient>
<linearGradient id="paint3_linear_202_142" x1="194.704" y1="95.0989" x2="89.0502" y2="95.0989" gradientUnits="userSpaceOnUse">
<stop stop-color="white" stop-opacity="0.77"/>
<stop offset="0.370128" stop-color="white"/>
<stop offset="0.605261" stop-color="white"/>
<stop offset="1" stop-color="white" stop-opacity="0.8"/>
</linearGradient>
</defs>
</svg>
